# xmcd
#
# Track frame offsets:
#	150
#	11777
#	24123
#	34262
#	47724
#	59179
#	70634
#	79282
#	88703
#	101095
#	113305
#	128516
#	140431
#	152998
#	165880
#	177290
#	190557
#	204520
#	218447
#	231108
#	244393
#	255534
#	265861
#	275015
#	286764
#	298617
#	308664
#	317824
#
# Disc length: 4401 seconds
#
# Revision: 0
# Processed by: cddbd v1.5.2PL0 Copyright (c) Steve Scherf et al.
# Submitted via: EasyCDDAExtractor 2010.6.0.0
#
DISCID=84112f1c
DTITLE=Jackson Stonewall - Lonesome In Me
DYEAR=1900
DGENRE=
TTITLE0=Ship In The Bottle
TTITLE1=Morals Of A Man
TTITLE2=I Miss You Most In The Winter Time
TTITLE3=Better Days For Mama
TTITLE4=Lonesome In Me
TTITLE5=Thoughts Of A Lonely Man
TTITLE6=Never More Quote The Raven
TTITLE7=Difference Between Going And Really Gone
TTITLE8=Blues Plus Booze (Means I Lose)
TTITLE9=Harm You've Done
TTITLE10=Somebody's Always Leaving
TTITLE11=Recess Time
TTITLE12=Born That Way
TTITLE13=Blue Field
TTITLE14=Oh Lonesome Me
TTITLE15=When He Was Nine
TTITLE16=Red Roses Blooming Back Home
TTITLE17=Nashville
TTITLE18=Push The Panic Button
TTITLE19=Waitin' For Dawn Till Dawn
TTITLE20=Waterloo (1972)
TTITLE21=That's All This Old World Needs
TTITLE22=Big Busy World
TTITLE23=Torn From The Pages Of Life
TTITLE24=I've Run Out Of Reasons (For Running Late At Night)
TTITLE25=I'm Not Strong Enough
TTITLE26=True Love Is The Thing
TTITLE27=House Of Bottles And Cans
EXTD=
EXTT0=
EXTT1=
EXTT2=
EXTT3=
EXTT4=
EXTT5=
EXTT6=
EXTT7=
EXTT8=
EXTT9=
EXTT10=
EXTT11=
EXTT12=
EXTT13=
EXTT14=
EXTT15=
EXTT16=
EXTT17=
EXTT18=
EXTT19=
EXTT20=
EXTT21=
EXTT22=
EXTT23=
EXTT24=
EXTT25=
EXTT26=
EXTT27=
PLAYORDER=
